/* XPM */
static char *f31164d7fb2743e0ea8d1efdb4a468ba[] = {
/* columns rows colors chars-per-pixel */
"64 64 91 1 ",
"  c #333436",
". c #3B3C3C",
"X c #414244",
"o c #444649",
"O c #4B4C4E",
"+ c #4F504F",
"@ c #4C4E50",
"# c #4F5052",
"$ c #535355",
"% c #565659",
"& c #57585B",
"* c #5B5C5E",
"= c #5E5F61",
"- c #5F6062",
"; c #626365",
": c #686867",
"> c #656669",
", c #67686A",
"< c #6A6A6C",
"1 c #6D6E72",
"2 c #6F7072",
"3 c #727375",
"4 c #747579",
"5 c #77787A",
"6 c #7A7A7C",
"7 c #7D7D81",
"8 c #7F8083",
"9 c #828386",
"0 c #85868A",
"q c #87888C",
"w c #898A8D",
"e c #8C8D91",
"r c #8F9094",
"t c #929296",
"y c #949599",
"u c #97989B",
"i c #9A9B9D",
"p c #9FA09E",
"a c #9D9EA1",
"s c #9FA0A3",
"d c #A1A2A5",
"f c #A5A5A9",
"g c #A8A7AA",
"h c #A7A8AC",
"j c #AAABAD",
"k c #B0AFAE",
"l c #ADAEB2",
"z c #AFB0B4",
"x c #B2B3B5",
"c c #B5B6B9",
"v c #B7B8BB",
"b c #BABBBD",
"n c #BDBEC1",
"m c #C0BFC1",
"M c #BFC0C3",
"N c #C3C3C5",
"B c #C8C7C5",
"V c #C9C9C7",
"C c #C4C5C9",
"Z c #C8C7C8",
"A c #C7C8CA",
"S c #CACBCC",
"D c #CDCED1",
"F c #CFD0D2",
"G c #D3D4D5",
"H c #D9D9D7",
"J c #D6D6D8",
"K c #D8D7DA",
"L c #D7D8DA",
"P c #DADBDC",
"I c #E0DFDF",
"U c #E2E1DF",
"Y c #DDDEE0",
"T c #E0DFE0",
"R c #DFE0E0",
"E c #E3E3E4",
"W c #E6E8E6",
"Q c #E8E8E7",
"! c #E6E7E9",
"~ c #E9E7E9",
"^ c #E6E8EA",
"/ c #EAEAEB",
"( c #F0F0EF",
") c #EEEEF1",
"_ c #F0EFF0",
"` c #EFF0F2",
"' c #F3F4F4",
"] c #F8F8F7",
"[ c #F7F8F9",
"{ c #FCFCFB",
"} c None",
/* pixels */
"}}}}}}}}}}}}}}}}}}}}}}}}}}}}}}xnNc}}}}}}}}}}}}}}}}}}}}}}}}}}}}}}",
"}}}}}}}}}}}}}}}}}}}}}}}}}ZVCMnnncnMMNVV}}}}}}}}}}}}}}}}}}}}}}}}}",
"}}}}}}}}}}}}}}}}}}}}}}JSnchdaaayidiaafznCJS}}}}}}}}}}}}}}}}}}}}}",
"}}}}}}}}}}}}}}}}}}}GGCjsiyfhhsanhajhjfuadjnDP}}}}}}}}}}}}}}}}}}}",
"}}}}}}}}}}}}}}}}}PYnfudljxcznr8yiwhnhxnffddfcJP}}}}}}}}}}}}}}}}}",
"}}}}}}}}}}}}}}}FECaaxbh0dShlShcsjdcMznn79yjjianRP}}}}}}}}}}}}}}}",
"}}}}}}}}}}}}}}!Ylijcxh05hDMCMDFJFFDMACnhaw7jCzyfJ)}}}}}}}}}}}}}}",
"}}}}}}}}}}}}}'Suhnc7uylNDFPPJDSSAADGKKJJAnfMnznzan`}}}}}}}}}}}}}",
"}}}}}}}}}}}}[vuxnCCacCJ^TSbgaiayuauafvAJRJGDnxCnjsj[E}}}}}}}}}}}",
"}}}}}}}}}}P'jfDCnxDDJ!Fbarqqryyyyyyre0wixFEJSDDyrCla)G}}}}}}}}}}",
"}}}}}}}}}}{fjnfGCNF^YxuwtisdaadiaaaaasatwthJ^JDfyiSxi_P}}}}}}}}}",
"}}}}}}}}}{hxnnedYY~muwiddasiadaiaaaaaasssarrxERYmqrFbs`E}}}}}}}}",
"}}}}}}}}{cfJcanv~!h9tauiuyiuyiiiuuuuuuyiiuay7iP^YFtyFnf[}}}}}}}}",
"}}}}}}}{AfDrdnC[KywaaaauaaiaaaiiaaiaaaaaiiaaaeqD)Ez8aCln{}}}}}}}",
"}}}}}}!RdCDlqK[KryfadddaddddfddasdssaddffdfaafuqS)KAqfDdF'}}}}}}",
"}}}}}}'fnADJJ`P0ujdffhfiadaaaadaaasiaasaiadsddda0A`^v9ZCf'}}}}}}",
"}}}}}{DhSCbJ/Erit7addpdgiaiaaaaiiiiaaiiudy6qeypdyqG)FDFDzn{}}}}}",
"}}}}}`hSJDDR`ayixv;-:;*txadddddadfassdpjuyBkit;*sarE!YCnSfTT}}}}",
"}}}}[nnjd^J'bqj0S{y@*=$*gjadddaaddaaaaid9P'Nx9O$yjrj)YSNJnz[}}}}",
"}}}})jSvfv'Geaf0V/N6&;:$,xdpaaaaaaaaaaf6B(kkw$**yfaqC)PKxnzY/}}}",
"}}}_DnSyvJ[ftfdqVQxd1-;>$0xadsdassaadlwg'mlu;&-*yhduu//CylMC]}}}",
"}}}'vSvtf{DefhhwVQxiw>-;-$pzdfdaffssdue'Gkd3=-**uhdfwm`YhxFz)}}}",
"}}}TzFyyP'hyhddqV/xt99->:%-xfdssdadad9HUkg822=**ufasus!!iaJlGQ}}",
"}})Cnmqd`JiddddeV/xi<i6-;,$5cpddsfal9m]vkw;w:=**ufaddrS'FrcMn'}}",
"}}'bnFSS`nthdfheVQxd-wj-;;>+ycadfsjep{Vlp;2p;==*ihfsfyx'KesDx`}}",
"}}~zCSGE^jifffhrS/xp<2b9->>&%kzddjae/Gkd7Ori*=**ihsddaaEYFPZjY}}",
"}}PhSnn^KiddfdfeV/xi2*kj2->:$2cdff7P/xjw--gt=-**ufsdsstF^YSClJ/}",
"}QKlSKKEDyhfffhrVQxp3ouZy>-;,O0vh0b'bku<$3bw--**ijffddyC^DvDvV)}",
"}/SxnFF^nuhhfhjrZ~ka4O5Hj0->>*$kdp[Zxd3;OtV0-=**ajhffhavEJGDvM)}",
"}!Snj9v`cuhfhhhrV/zp3%$SBd6*>,*&r'Pxg8--$bm0-==*ajsfffajYFScnn/}",
"}/CbniM^lahjffheS/xp3;Xj~ji<->>Xm'xkt;>+2Il0;=**ahfffdalRAaicbEG",
"SQbbSqn^hfjhhhjeSQxp3>#9'bke->**FFji<->XdWdw-=*=ahfffhajYFrbNxEP",
"AEvnzeMRhdjjhhjeS~xp2--&EUkg8--&cNd5=;=&GFd0;=*=pggggddjPFejAlRY",
"}RnnzsFPzdlhjhlyS/kp3-:o6{Vls2**jx0=;,%3(Bk0==**pkdgdhslKSsxnzYF",
"}RMzCecRzdzhjjhtS~xi3;>*+V]vjr;*pd:;;<O6]Bgw;=**skggfhdlPMpcccRv",
"}RnjCedExszhhjlrSQxs3*:$9yGWxj9&u6*-:%=cQBgw;=**pkgghhdxPzqMccY}",
"}PMhlezPbpljzjzySQxp3=>$8lw'Gkp54>;>=$dcUBgw;-**szhhhjsvJMyczvP}",
"}JSfz7yJMsjjjjzySQkp3->$5Ctg]nzi=;;>OtmdUBgw--**szhhhjsMJutnsMY}",
"}}DazajAAfjjjjjtD~xs3-:$6bc9VQS9$>:+2mggQBgw;***szjjhhfCDuanaZP}",
"}}GdhMCbSzfzljxuS~kp2-:$6bkk0'Jo->%=cxjgUBgw;-**dxhjjhlAnCnhaS}}",
"}}JhajxvncfxllxiSQxp3=>$6Mkcsl5.*+OgMjjhWNgw--**scjjjfznnzzaaJ}}",
"}}ScehjzccfzllltS~kp3-:%6bjjcs8pyrdbhjjhWNgw--**scjjjfcnzjhyjF}}",
"}}}nyshjznffzjzySQxi3*>$6bjkjxbMnmckjlhjUBgw--**dcljjlnllhdrn}}}",
"}}}SayfhlczsxzcaSQkg5*>$8MzlzzzljjkkxkljQmkt-***hcjzhjcjhfuiC}}}",
"}}}ZzqsfflcfjxxiS/Bi,>>$7MklzzlzzzzzlzlkUHv6-***dnhjhczjhfwhZ}}}",
"}}}}CutsfzczdkctG]e$=>>#5Mlkjjjzlljzjhfg{b:%:>*%dczfjzhhsueN}}}}",
"}}}}Czesdiycghbkk: +%$$X6NzzzxzzzzzxzxxxtXX*%*$$fnjjcjhfdqhS}}}}",
"}}}}}CirfqejcdgBuwgdpdpikvxxxxxzxxxzxxcl9pppppidczdzjffayyn}}}}}",
"}}}}}}x8uaeyjjilnMnnnnnnnjzzkzjxzxzjzljzMMnnnnnncahhfaaa8hn}}}}}",
"}}}}}}na8uy8iffyzvzzzzzlljzzzxlxzzzzzzzzzlzzljcxadfiayy8rn}}}}}}",
"}}}}}}}zq0ie7ufayzCccvcvcvccccvxcccccccxcczcznnuifrqryw8l}}}}}}}",
"}}}}}}}}f78yq8yairdnnzxcxxxzxxxxxzzczzzxzzlnMhyydq7eeq7df}}}}}}}",
"}}}}}}}}fy77r8qryywyznnczzllxxlxzzzxkjlzzznvaqyie7qeq7tf}}}}}}}}",
"}}}}}}}}}fe77eq7etyeqaznMbccxccccvvxxcbMCcdw0tr07qe74qj}}}}}}}}}",
"}}}}}}}}}}ae>78qq7eew7qijnNMbbbbbvbbbCMziq8ete08q7717a}}}}}}}}}}",
"}}}}}}}}}}}sr77787q0qre79wusjzzxxlkjdye88ee08e08071ed}}}}}}}}}}}",
"}}}}}}}}}}}}la778qq09qeyeqq0qwrerre000ette078q0747ah}}}}}}}}}}}}",
"}}}}}}}}}}}}}}le67qwq0000yyuyyyuutyyyyrr000eee77wh}}}}}}}}}}}}}}",
"}}}}}}}}}}}}}}}zhw79yewqqqeeuaaetayat8q0eryrq7qfc}}}}}}}}}}}}}}}",
"}}}}}}}}}}}}}}}}}nzu99eiueqeay99r00dywyiur89rhn}}}}}}}}}}}}}}}}}",
"}}}}}}}}}}}}}}}}}}}Mnfewwyeidywyiwysauue9esvnn}}}}}}}}}}}}}}}}}}",
"}}}}}}}}}}}}}}}}}}}}}SSnxfaueyyyyyyeyislnSS}}}}}}}}}}}}}}}}}}}}}",
"}}}}}}}}}}}}}}}}}}}}}}}}FFASNZnvcnCCADFF}}}}}}}}}}}}}}}}}}}}}}}}",
"}}}}}}}}}}}}}}}}}}}}}}}}}}}}}CDKJDV}}}}}}}}}}}}}}}}}}}}}}}}}}}}}"
};
