/* XPM */
static char *_bdf37449b3c4e41df56a7d5549355a5[] = {
/* columns rows colors chars-per-pixel */
"32 32 73 1 ",
"  c #2F3032",
". c #37393B",
"X c #424345",
"o c #444649",
"O c #47494B",
"+ c #4C4D4F",
"@ c #4E4E50",
"# c #4D5050",
"$ c #525354",
"% c #555659",
"& c #55585A",
"* c #5B5C5D",
"= c #5E5F62",
"- c #5E6062",
"; c #626264",
": c #666669",
"> c #67696B",
", c #6A6A6D",
"< c #737476",
"1 c #75767A",
"2 c #77787C",
"3 c #7A7B7D",
"4 c #7D7E82",
"5 c #7F8083",
"6 c #828285",
"7 c #85868A",
"8 c #87888B",
"9 c #898A8E",
"0 c #8C8D92",
"q c #8F9094",
"w c #929396",
"e c #95969A",
"r c #97989B",
"t c #9A9B9E",
"y c #9D9EA2",
"u c #9FA0A3",
"i c #A1A2A5",
"p c #A4A5A9",
"a c #A7A8AB",
"s c #AAABAD",
"d c #ADAEB1",
"f c #B0AFB2",
"g c #AFB0B3",
"h c #B1B2B5",
"j c #B5B6B9",
"k c #B7B8BB",
"l c #BABABD",
"z c #BDBEC1",
"x c #BFC0C3",
"c c #C2C3C5",
"v c #C6C7C9",
"b c #C7C8CB",
"n c #CBCCCD",
"m c #CDCED1",
"M c #CFD0D3",
"N c #D3D3D4",
"B c #D9D9D7",
"V c #D6D7D9",
"C c #D8D7D9",
"Z c #DADADB",
"A c #E0DFDF",
"S c #E2E0DF",
"D c #DEDEE0",
"F c #E3E3E4",
"G c #E8E8E7",
"H c #E6E7E8",
"J c #ECECEC",
"K c #F0EFEE",
"L c #F1F0EF",
"P c #EEEFF1",
"I c #EEF0F1",
"U c #F8F9F8",
"Y c None",
/* pixels */
"YYYYYYYYYYYYYYkzlkYYYYYYYYYYYYYY",
"YYYYYYYYYYczsaywryiszvYYYYYYYYYY",
"YYYYYYYYMkf9ykdyugze4igMYYYYYYYY",
"YYYYYYYcftriNVnmmmVNdpdsvYYYYYYY",
"YYYYYJcdjcmAluyytyykZDVpebHYYYYY",
"YYYYYvisAAjq0wrrtee00sZDtyxPYYYY",
"YYYYMuiZAw8ruyyytyyyy99ZPquMYYYY",
"YYYZjkDC3iksyyyuyyyiyqyqbFyhZYYY",
"YYFczJH9y41wsyuyuuutrsu35FJkzDYY",
"YYVacIrqJ7.#yfyyyui9nG2XqyHCdMYY",
"YZMybb9yBz,+=fayuiqhJ0+*iqkHimDY",
"YVziDyyyBs6,O3lypwtKs:;*yueHddDY",
"YmjFMqayBi3w&#wluwAn;3,&taqmVdMY",
"YcxJktayBs%f6+$frnS<*i;*udrgPbvY",
"YMaChysyBhOuc*+;zLuX5j$*udydZzcN",
"NbrvkiayBj$3K7$%Bl;oks$*tdugMthF",
"NxinhadiBf;+mN:*z7+:Bt$*ifufnakB",
"YntckidiBf:X6Ud:7;X8Kw%*ufukvizn",
"Yx8hzasiBf;%8cFt;@*cSw%*ifilkrxY",
"YjuczidaBf;#taBr $pcBr%*ahizcikY",
"YjilksfaBf;#rls3;rlhBw%*afaklihY",
"YztijddiSc:$tlskvlahGs$-sgdjarjY",
"YYiqhfffB8+XwzshffazN>X#ajdgeiYY",
"YYzewuflr;3<ikddffhj6>36hdgi0kYY",
"YYYi7qiagbccjdhhgggdgvcbsii9yYYY",
"YYYY069rykxkgghjhhdgjzkiw977YYYY",
"YYYYi449qqizcljjkkkzlse9941yYYYY",
"YYYYYr4<674qidhhgggu047611yYYYYY",
"YYYYYYY9249669qerq9669417iYYYYYY",
"YYYYYYYYsq7669e99w0779qaYYYYYYYY",
"YYYYYYYYYYjsure99qyyagYYYYYYYYYY",
"YYYYYYYYYYYYYvbbbvvYYYYYYYYYYYYY"
};
