/* XPM */
static char *d1428217497f42d2ac538b820e75ec83[] = {
/* columns rows colors chars-per-pixel */
"16 16 177 2 ",
"   c #28292B",
".  c #434547",
"X  c #444649",
"o  c #484A4C",
"O  c #4B4C4D",
"+  c #4B4C4E",
"@  c #4D4F50",
"#  c #555557",
"$  c #545657",
"%  c #565758",
"&  c #5C5D5F",
"*  c #606164",
"=  c #636467",
"-  c #646566",
";  c #656567",
":  c #666769",
">  c #66676B",
",  c #676869",
"<  c #67686A",
"1  c #68696A",
"2  c #696B71",
"3  c #6C6D71",
"4  c #6D6E71",
"5  c #727378",
"6  c #737578",
"7  c #7B7C81",
"8  c #7C7D81",
"9  c #7F7F83",
"0  c #7E8083",
"q  c #7F8084",
"w  c #808283",
"e  c #818086",
"r  c #818287",
"t  c #858487",
"y  c #868789",
"u  c #86868A",
"i  c #87888C",
"p  c #89898D",
"a  c #8A8A8D",
"s  c #8C8E8E",
"d  c #8B8C91",
"f  c #8C8D91",
"g  c #8C8E93",
"h  c #909193",
"j  c #929295",
"k  c #949597",
"l  c #949698",
"z  c #94969A",
"x  c #96969A",
"c  c #97989B",
"v  c #97999C",
"b  c #97999E",
"n  c #9A9B9D",
"m  c #9A9B9E",
"M  c #9B9C9F",
"N  c #9E9D9F",
"B  c #9D9E9F",
"V  c #9B9DA0",
"C  c #9C9DA0",
"Z  c #9C9DA1",
"A  c #9D9DA1",
"S  c #9C9EA1",
"D  c #9D9EA3",
"F  c #9F9FA3",
"G  c #9EA0A3",
"H  c #9FA1A3",
"J  c gray63",
"K  c #A1A1A5",
"L  c #A0A2A4",
"P  c #A3A3A5",
"I  c #A1A2A7",
"U  c #A1A3A7",
"Y  c #A2A3A6",
"T  c #A2A4A7",
"R  c #A5A5A7",
"E  c #A3A4A8",
"W  c #A2A4A9",
"Q  c #A3A4AB",
"!  c #A5A5A8",
"~  c #A4A5A9",
"^  c #A5A6A9",
"/  c #A7A7AA",
"(  c #A7A7AC",
")  c #A7A8AC",
"_  c #A7A9AD",
"`  c #A8A9AA",
"'  c #A8A8AD",
"]  c #A8A9AE",
"[  c #AAABAE",
"{  c #ABABAE",
"}  c #ABABAF",
"|  c #ACADAF",
" . c #ACAEAF",
".. c #ABACB0",
"X. c #ACADB1",
"o. c #ACAEB3",
"O. c #AEAFB2",
"+. c #AEB0B2",
"@. c #AFB0B2",
"#. c #AFB0B3",
"$. c #AFB0B4",
"%. c gray69",
"&. c #B0B1B1",
"*. c #B0B1B3",
"=. c #B0B1B4",
"-. c #B1B2B4",
";. c #B0B2B5",
":. c #B1B2B5",
">. c #B3B3B5",
",. c #B1B3B6",
"<. c #B1B2B7",
"1. c #B2B4B6",
"2. c #B3B4B7",
"3. c #B4B4B7",
"4. c #B3B5B8",
"5. c #B4B5B8",
"6. c #B5B6B8",
"7. c #B5B6B9",
"8. c #B6B6B8",
"9. c #B6B7B8",
"0. c #B7B7B9",
"q. c #B5B6BA",
"w. c #B7B7BA",
"e. c #B7B8B8",
"r. c #B6B8BC",
"t. c #B6B8BD",
"y. c #BABABB",
"u. c #B9BBBC",
"i. c #B9BABD",
"p. c #BABBBC",
"a. c #BABABF",
"s. c #BABCBF",
"d. c #BBBCBF",
"f. c gray74",
"g. c #BDBEBD",
"h. c #BCBCBE",
"j. c #BDBEBF",
"k. c #BEBFBF",
"l. c #BBBDC0",
"z. c #BCBCC0",
"x. c #BCBDC0",
"c. c #BDBEC3",
"v. c #BFBFC4",
"b. c #BFC0C2",
"n. c #BEC0C3",
"m. c #BFC0C3",
"M. c #C2C1C1",
"N. c #C0C0C2",
"B. c #C4C3C3",
"V. c #C1C2C4",
"C. c #C0C2C5",
"Z. c #C3C3C5",
"A. c #C2C3C7",
"S. c #C3C3C7",
"D. c #C2C4C5",
"F. c #C4C4C7",
"G. c #C6C6C6",
"H. c #C6C6C7",
"J. c #C5C6C8",
"K. c #C5C7C9",
"L. c #C6C6C8",
"P. c #C6C7CA",
"I. c #C8C8C8",
"U. c #C9CACC",
"Y. c #C9CBCC",
"T. c #CACBCD",
"R. c #CDCCCD",
"E. c #CCCDCD",
"W. c #CECFD1",
"Q. c #CFD1D3",
"!. c #D0D1D4",
"~. c #D2D3D4",
"^. c #D3D4D5",
"/. c #D7D8DA",
"(. c #D8D9DD",
"). c #DDDCDD",
"_. c None",
/* pixels */
"_._._._._._.@.K ~ $._._._._._._.",
"_._._._...' z.$.4.r._ @._._._._.",
"_._._.$.U.3.! ! K R d.P.~ _._._.",
"_._.r.K./ Z Z c M l e p.U.o._._.",
"_.Z.Q.K.t -  .! Z Z K., G (.A._.",
"_.c.4.K R.o - c.g R.%.o y A.n._.",
"^.!.@.( y.y @ 9 U.B.= , j ,.W.!.",
"K.d. .8.&.a N . ).4 q : k 8.N.K.",
"Z.[ o.8.d.% M.N * , d.# n e...n.",
"n.' >.8.D.O ` d.  8.G.# B p.o.n.",
"_.~ ,.c.I.@ c _ h /.y.X Z c.K _.",
"_.V v G.J & G l.d.p.s , y.' v _.",
"_._.q z ..U.l.@.>.$.8.D.V e _._.",
"_._._.4 8 D ,.8.8.$.G 8 2 k _._.",
"_._._._.a 6 8 d d q 6 i _._._._.",
"_._._._._._.;.~ H >._._._._._._."
};
